<svg width="20" height="20" viewBox="0 0 20 20" fill="none" xmlns="http://www.w3.org/2000/svg">
<rect width="20" height="20" rx="2" fill="#98B9CD"/>
<path d="M14.7365 5.97006C14.8047 5.90042 14.8862 5.8451 14.9761 5.80734C15.0659 5.76957 15.1625 5.75012 15.26 5.75012C15.3575 5.75012 15.454 5.76957 15.5439 5.80734C15.6338 5.8451 15.7152 5.90042 15.7835 5.97006C16.0695 6.25906 16.0735 6.72606 15.7935 7.02006L9.88047 14.0101C9.81333 14.0838 9.73187 14.143 9.64105 14.1842C9.55023 14.2253 9.45197 14.2475 9.35227 14.2494C9.25258 14.2513 9.15356 14.2328 9.06126 14.1951C8.96896 14.1574 8.88532 14.1012 8.81547 14.0301L5.21747 10.3841C5.07871 10.2425 5.00098 10.0523 5.00098 9.85406C5.00098 9.65586 5.07871 9.46557 5.21747 9.32406C5.28571 9.25442 5.36717 9.1991 5.45706 9.16134C5.54695 9.12357 5.64347 9.10412 5.74097 9.10412C5.83847 9.10412 5.93499 9.12357 6.02488 9.16134C6.11477 9.1991 6.19622 9.25442 6.26447 9.32406L9.31647 12.4171L14.7165 5.99206C14.7227 5.98433 14.7294 5.97698 14.7365 5.97006Z" fill="white"/>
</svg>
