<svg width="98" height="54" viewBox="0 0 98 54" fill="none" xmlns="http://www.w3.org/2000/svg">
<path d="M12.192 47.64C11.104 47.64 10.16 47.432 9.36 47.016C8.56 46.632 7.952 46.04 7.536 45.24C7.152 44.44 6.96 43.464 6.96 42.312V32.136C6.96 30.824 6.704 29.864 6.192 29.256C5.712 28.648 4.816 28.328 3.504 28.296C3.024 28.296 2.624 28.104 2.304 27.72C2.016 27.336 1.872 26.888 1.872 26.376C1.872 25.832 2.016 25.384 2.304 25.032C2.624 24.68 3.024 24.488 3.504 24.456C4.816 24.424 5.712 24.104 6.192 23.496C6.704 22.888 6.96 21.944 6.96 20.664V10.488C6.96 8.76 7.408 7.448 8.304 6.552C9.232 5.624 10.528 5.16 12.192 5.16H15.6C16.208 5.16 16.704 5.336 17.088 5.688C17.472 6.04 17.664 6.488 17.664 7.032C17.664 7.544 17.488 7.992 17.136 8.376C16.816 8.728 16.4 8.904 15.888 8.904H13.776C13.136 8.904 12.64 9.08 12.288 9.432C11.968 9.784 11.808 10.312 11.808 11.016V21.192C11.808 22.152 11.6 23.048 11.184 23.88C10.8 24.68 10.272 25.32 9.6 25.8C8.928 26.28 8.176 26.52 7.344 26.52V26.328C8.176 26.328 8.928 26.568 9.6 27.048C10.272 27.496 10.8 28.12 11.184 28.92C11.6 29.72 11.808 30.616 11.808 31.608V41.784C11.808 42.488 11.968 43.016 12.288 43.368C12.64 43.72 13.136 43.896 13.776 43.896H15.888C16.4 43.896 16.816 44.072 17.136 44.424C17.488 44.808 17.664 45.256 17.664 45.768C17.664 46.312 17.472 46.76 17.088 47.112C16.704 47.464 16.208 47.64 15.6 47.64H12.192ZM83.2069 47.64C82.6309 47.64 82.1349 47.464 81.7189 47.112C81.3349 46.76 81.1429 46.312 81.1429 45.768C81.1429 45.256 81.3029 44.808 81.6229 44.424C81.9749 44.072 82.4069 43.896 82.9189 43.896H85.0309C85.7029 43.896 86.1989 43.72 86.5189 43.368C86.8389 43.016 86.9989 42.488 86.9989 41.784V31.608C86.9989 30.616 87.1909 29.72 87.5749 28.92C87.9909 28.12 88.5349 27.48 89.2069 27C89.9109 26.52 90.6629 26.28 91.4629 26.28V26.472C90.6629 26.472 89.9109 26.248 89.2069 25.8C88.5349 25.32 87.9909 24.68 87.5749 23.88C87.1909 23.048 86.9989 22.152 86.9989 21.192V11.016C86.9989 10.312 86.8389 9.784 86.5189 9.432C86.1989 9.08 85.7029 8.904 85.0309 8.904H82.9189C82.4069 8.904 81.9749 8.728 81.6229 8.376C81.3029 7.992 81.1429 7.544 81.1429 7.032C81.1429 6.488 81.3349 6.04 81.7189 5.688C82.1349 5.336 82.6309 5.16 83.2069 5.16H86.5669C87.7189 5.16 88.6789 5.368 89.4469 5.784C90.2469 6.168 90.8389 6.76 91.2229 7.56C91.6389 8.36 91.8469 9.336 91.8469 10.488V20.664C91.8469 21.944 92.1029 22.888 92.6149 23.496C93.1269 24.104 94.0069 24.424 95.2549 24.456C95.7989 24.488 96.2149 24.696 96.5029 25.08C96.7909 25.432 96.9349 25.88 96.9349 26.424C96.9349 26.904 96.7909 27.336 96.5029 27.72C96.2149 28.104 95.7989 28.296 95.2549 28.296C94.0069 28.328 93.1269 28.648 92.6149 29.256C92.1029 29.864 91.8469 30.824 91.8469 32.136V42.312C91.8469 44.04 91.3989 45.352 90.5029 46.248C89.6069 47.176 88.2949 47.64 86.5669 47.64H83.2069Z" fill="#98B9CD"/>
<path fill-rule="evenodd" clip-rule="evenodd" d="M50.4571 9.10255C48.982 8.78886 47.5496 8.63202 46.16 8.63202C43.376 8.63202 40.864 9.04802 38.624 9.88002C36.416 10.68 34.528 11.848 32.96 13.384C31.424 14.92 30.24 16.76 29.408 18.904C28.608 21.048 28.208 23.432 28.208 26.056C28.208 29.576 28.912 32.648 30.32 35.272C31.76 37.896 33.824 39.928 36.512 41.368C39.2 42.808 42.416 43.528 46.16 43.528C47.792 43.528 49.424 43.336 51.056 42.952C52.72 42.568 54.112 42.04 55.232 41.368C56.064 40.92 56.64 40.328 56.96 39.592C57.312 38.856 57.424 38.12 57.296 37.384C57.168 36.616 56.864 35.944 56.384 35.368C55.936 34.792 55.328 34.408 54.56 34.216C53.824 34.024 52.976 34.136 52.016 34.552C51.088 35 50.144 35.336 49.184 35.56C48.224 35.752 47.328 35.848 46.496 35.848C44.512 35.848 42.848 35.48 41.504 34.744C40.192 33.976 39.2 32.872 38.528 31.432C37.856 29.96 37.52 28.168 37.52 26.056C37.52 23.944 37.856 22.168 38.528 20.728C39.2 19.288 40.192 18.2 41.504 17.464C42.848 16.696 44.512 16.312 46.496 16.312C46.72 16.312 46.9418 16.3181 47.1612 16.3304C47.5714 13.5968 48.7446 11.113 50.4571 9.10255Z" fill="#586C9D"/>
<circle cx="61.5" cy="18.5" r="9.5" fill="#98B9CD"/>
</svg>
