<svg width="135" height="82" viewBox="0 0 135 82" fill="none" xmlns="http://www.w3.org/2000/svg">
<path d="M17.256 76.52C15.8053 76.52 14.5467 76.2427 13.48 75.688C12.4133 75.176 11.6027 74.3867 11.048 73.32C10.536 72.2533 10.28 70.952 10.28 69.416V55.848C10.28 54.0987 9.93867 52.8187 9.256 52.008C8.616 51.1973 7.42133 50.7707 5.672 50.728C5.032 50.728 4.49867 50.472 4.072 49.96C3.688 49.448 3.496 48.8507 3.496 48.168C3.496 47.4427 3.688 46.8453 4.072 46.376C4.49867 45.9067 5.032 45.6507 5.672 45.608C7.42133 45.5653 8.616 45.1387 9.256 44.328C9.93867 43.5173 10.28 42.2587 10.28 40.552V26.984C10.28 24.68 10.8773 22.9307 12.072 21.736C13.3093 20.4987 15.0373 19.88 17.256 19.88H21.8C22.6107 19.88 23.272 20.1147 23.784 20.584C24.296 21.0533 24.552 21.6507 24.552 22.376C24.552 23.0587 24.3173 23.656 23.848 24.168C23.4213 24.6373 22.8667 24.872 22.184 24.872H19.368C18.5147 24.872 17.8533 25.1067 17.384 25.576C16.9573 26.0453 16.744 26.7493 16.744 27.688V41.256C16.744 42.536 16.4667 43.7307 15.912 44.84C15.4 45.9067 14.696 46.76 13.8 47.4C12.904 48.04 11.9013 48.36 10.792 48.36V48.104C11.9013 48.104 12.904 48.424 13.8 49.064C14.696 49.6613 15.4 50.4933 15.912 51.56C16.4667 52.6267 16.744 53.8213 16.744 55.144V68.712C16.744 69.6507 16.9573 70.3547 17.384 70.824C17.8533 71.2933 18.5147 71.528 19.368 71.528H22.184C22.8667 71.528 23.4213 71.7627 23.848 72.232C24.3173 72.744 24.552 73.3413 24.552 74.024C24.552 74.7493 24.296 75.3467 23.784 75.816C23.272 76.2853 22.6107 76.52 21.8 76.52H17.256ZM111.943 76.52C111.175 76.52 110.513 76.2853 109.959 75.816C109.447 75.3467 109.191 74.7493 109.191 74.024C109.191 73.3413 109.404 72.744 109.831 72.232C110.3 71.7627 110.876 71.528 111.559 71.528H114.375C115.271 71.528 115.932 71.2933 116.359 70.824C116.785 70.3547 116.999 69.6507 116.999 68.712V55.144C116.999 53.8213 117.255 52.6267 117.767 51.56C118.321 50.4933 119.047 49.64 119.943 49C120.881 48.36 121.884 48.04 122.951 48.04V48.296C121.884 48.296 120.881 47.9973 119.943 47.4C119.047 46.76 118.321 45.9067 117.767 44.84C117.255 43.7307 116.999 42.536 116.999 41.256V27.688C116.999 26.7493 116.785 26.0453 116.359 25.576C115.932 25.1067 115.271 24.872 114.375 24.872H111.559C110.876 24.872 110.3 24.6373 109.831 24.168C109.404 23.656 109.191 23.0587 109.191 22.376C109.191 21.6507 109.447 21.0533 109.959 20.584C110.513 20.1147 111.175 19.88 111.943 19.88H116.423C117.959 19.88 119.239 20.1573 120.263 20.712C121.329 21.224 122.119 22.0133 122.631 23.08C123.185 24.1467 123.463 25.448 123.463 26.984V40.552C123.463 42.2587 123.804 43.5173 124.487 44.328C125.169 45.1387 126.343 45.5653 128.007 45.608C128.732 45.6507 129.287 45.928 129.671 46.44C130.055 46.9093 130.247 47.5067 130.247 48.232C130.247 48.872 130.055 49.448 129.671 49.96C129.287 50.472 128.732 50.728 128.007 50.728C126.343 50.7707 125.169 51.1973 124.487 52.008C123.804 52.8187 123.463 54.0987 123.463 55.848V69.416C123.463 71.72 122.865 73.4693 121.671 74.664C120.476 75.9013 118.727 76.52 116.423 76.52H111.943Z" fill="#98B9CD"/>
<path fill-rule="evenodd" clip-rule="evenodd" d="M70.2643 24.9463C70.1819 24.929 70.0992 24.912 70.016 24.8953C67.9253 24.426 65.8987 24.1913 63.936 24.1913C60.224 24.1913 56.8747 24.746 53.888 25.8553C50.944 26.922 48.4267 28.4793 46.336 30.5273C44.288 32.5753 42.7093 35.0287 41.6 37.8873C40.5333 40.746 40 43.9247 40 47.4233C40 52.1167 40.9387 56.2127 42.816 59.7113C44.736 63.21 47.488 65.9193 51.072 67.8393C54.656 69.7593 58.944 70.7193 63.936 70.7193C66.112 70.7193 68.288 70.4633 70.464 69.9513C72.6827 69.4393 74.5387 68.7353 76.032 67.8393C77.1413 67.242 77.9093 66.4527 78.336 65.4713C78.8053 64.49 78.9547 63.5087 78.784 62.5273C78.6133 61.5033 78.208 60.6073 77.568 59.8393C76.9707 59.0713 76.16 58.5593 75.136 58.3033C74.1547 58.0473 73.024 58.1967 71.744 58.7513C70.5067 59.3487 69.248 59.7967 67.968 60.0953C66.688 60.3513 65.4933 60.4793 64.384 60.4793C61.7387 60.4793 59.52 59.9887 57.728 59.0073C55.9787 57.9833 54.656 56.5113 53.76 54.5913C52.864 52.6287 52.416 50.2393 52.416 47.4233C52.416 44.6073 52.864 42.2393 53.76 40.3193C54.656 38.3993 55.9787 36.9487 57.728 35.9673C59.52 34.9433 61.7387 34.4313 64.384 34.4313C65.2846 34.4313 66.1574 34.5056 67.0024 34.6541C67.0008 34.5643 67 34.4742 67 34.384C67 30.8552 68.2116 27.593 70.2643 24.9463Z" fill="#586C9D"/>
<ellipse cx="84" cy="34.3841" rx="12" ry="11.3043" fill="#98B9CD"/>
</svg>
